PathFileType	4	(x/y/z)	S01_P20_T21
DataRate	CameraRate	NumFrames	NumMarkers	Units	OrigDataRate	OrigDataStartFrame	OrigNumFrames
240	240	8	51	mm	240	143	381
Frame#	Time	Sternum			R.Acromium			L.Acromium			Top.Head			R.ASIS			L.ASIS			R.PSIS			L.PSIS			R.Great.Tro			L.Great.Tro			R.Iliac.Crest			L.Iliac.Crest			V.Sacral			R.Thigh.Upper.Post			R.Thigh.Lower.Ant			R.Thigh.Lower.Post			R.Thigh.Upper.Ant			R.Knee.Lat			R.Knee.Med			R.Shank.Upper.Post			R.Shank.Lower.Ant			R.Shank.Lower.Post			R.Shank.Upper.Ant			R.Ankle.Lat			R.Ankle.Med			R.Heel.Upper			R.Heel.Med			R.Heel.Lat			R.Toe.Lat			R.Toe.Med			R.Toe.Tip			L.Thigh.Upper.Post			L.Thigh.Lower.Ant			L.Thigh.Lower.Post			L.Thigh.Upper.Ant			L.Knee.Lat			L.Knee.Med			L.Shank.Upper.Post			L.Shank.Lower.Ant			L.Shank.Lower.Post			L.Shank.Upper.Ant			L.Ankle.Lat			L.Ankle.Med			L.Heel.Upper			L.Heel.Med			L.Heel.Lat			L.Toe.Lat			L.Toe.Med			L.Toe.Tip			Cervical.Spine			Back			
		X1	Y1	Z1	X2	Y2	Z2	X3	Y3	Z3	X4	Y4	Z4	X5	Y5	Z5	X6	Y6	Z6	X7	Y7	Z7	X8	Y8	Z8	X9	Y9	Z9	X10	Y10	Z10	X11	Y11	Z11	X12	Y12	Z12	X13	Y13	Z13	X14	Y14	Z14	X15	Y15	Z15	X16	Y16	Z16	X17	Y17	Z17	X18	Y18	Z18	X19	Y19	Z19	X20	Y20	Z20	X21	Y21	Z21	X22	Y22	Z22	X23	Y23	Z23	X24	Y24	Z24	X25	Y25	Z25	X26	Y26	Z26	X27	Y27	Z27	X28	Y28	Z28	X29	Y29	Z29	X30	Y30	Z30	X31	Y31	Z31	X32	Y32	Z32	X33	Y33	Z33	X34	Y34	Z34	X35	Y35	Z35	X36	Y36	Z36	X37	Y37	Z37	X38	Y38	Z38	X39	Y39	Z39	X40	Y40	Z40	X41	Y41	Z41	X42	Y42	Z42	X43	Y43	Z43	X44	Y44	Z44	X45	Y45	Z45	X46	Y46	Z46	X47	Y47	Z47	X48	Y48	Z48	X49	Y49	Z49	X50	Y50	Z50	X51	Y51	Z51	

143	0.59167	-517.29	1243.7	284.54	-623.07	1492.3	474.61	-681.05	1509.2	146.75	-652.28	1821.4	304.87	-548.85	1000.6	444.92	-570.88	982.75	180.5	-794.96	1029.9	371.72	-805.87	1022.4	269.86	-613.2	953.95	535.12	-684.24	926.79	111.56	-633.27	1095.7	516.51	-683.76	1063.6	113.63	-811.78	989.11	322.47	-516.66	659.38	506.34	-426.36	619.47	473.27	-482.24	579.18	481.73	-457.66	701.41	498.86	-436.72	529.54	471.29	-443.12	534.12	329.81	-483.87	368.55	494.69	-429.34	286.16	444.31	-490.06	298.65	482.97	-425.85	357.46	463.13	-505.12	101.31	442.49	-474.36	105.7	348.77	-574.38	71.746	382.45	-558.5	41.628	354.3	-565.73	41.5	418.5	-376.87	35.658	483.03	-340.06	39.95	359.13	-279.52	58.573	416.8	-720.93	653.27	122.43	-642.26	582.97	87.313	-708.2	562.61	126.42	-660.06	676.76	88.518	-671.57	485.21	90.718	-607.43	461	225.08	-795.26	433.81	85.808	-823.17	327.3	101.79	-855.12	383.09	93.949	-764.45	376.59	90.928	-1021.8	250.86	135.08	-986.22	231.69	226.48	-1076.6	294.21	192.09	-1087.3	273.77	228.25	-1100.1	274.44	167.65	-1020.1	90.539	115.78	-982.94	75.564	233.26	-945.17	34.253	175.51	-740.27	1555.5	324.54	-818.1	1244.2	344.85
144	0.59583	-511.47	1244.1	284.86	-616.82	1492.5	475.38	-675.53	1509.8	147.7	-646.55	1821.9	306.23	-542.61	1001.1	445.07	-564.99	983.19	180.7	-788.87	1030.1	372.09	-799.98	1022.3	270.27	-606.64	954.53	535.29	-678.21	926.84	111.9	-627.25	1096	516.86	-678.14	1064	114.16	-805.69	989.11	322.96	-511.3	659.34	506.24	-421.21	619	473.1	-477.28	578.98	481.6	-452.11	701.1	498.71	-432.21	528.96	471.12	-438.74	533.63	329.67	-480.95	368.49	494.44	-427.18	285.54	444.12	-487.79	298.63	482.8	-423.01	356.82	462.96	-504.89	101.37	442.3	-474.2	105.55	348.54	-574.34	71.796	382.43	-558.51	41.638	354.29	-565.72	41.565	418.5	-376.85	35.707	483	-340.05	39.688	359	-279.47	58.219	416.67	-710.71	652.66	122.45	-631.48	583.38	86.731	-696.75	562.18	126.39	-650.31	676.91	88.145	-659.08	485.75	90.079	-594.05	461.81	224.6	-782.4	435.6	85.676	-811.58	329.41	101.83	-842.77	385.49	94.081	-752.22	378.04	90.82	-1010.6	255.48	135.79	-974.9	235.23	226.99	-1064.1	299.98	193.3	-1075.1	279.67	229.49	-1088.3	280.85	168.95	-1012.9	94.656	115.96	-974.82	78.117	232.94	-939.01	35.06	174.77	-734.43	1555.9	325.71	-812.03	1244.5	345.65
145	0.6	-505.67	1244.6	285.12	-610.58	1492.8	476.09	-670.03	1510.5	148.61	-640.81	1822.4	307.58	-536.41	1001.7	445.17	-559.14	983.72	180.84	-782.81	1030.3	372.48	-794.12	1022.4	270.69	-600.11	955.14	535.42	-672.24	927.02	112.22	-621.25	1096.3	517.21	-672.62	1064.4	114.65	-799.64	989.21	323.47	-506.11	659.32	506.1	-416.26	618.53	472.9	-472.53	578.78	481.46	-446.72	700.79	498.53	-427.93	528.37	470.94	-434.59	533.15	329.53	-478.23	368.42	494.17	-425.17	284.95	443.94	-485.69	298.6	482.61	-420.35	356.2	462.8	-504.68	101.43	442.11	-474.06	105.42	348.32	-574.32	71.824	382.4	-558.52	41.635	354.29	-565.72	41.613	418.49	-376.85	35.784	482.96	-340.06	39.505	358.89	-279.45	57.973	416.55	-700.49	652.21	122.51	-620.72	583.95	86.209	-685.29	561.92	126.43	-640.58	677.2	87.799	-646.65	486.47	89.514	-580.77	462.87	224.22	-769.57	437.44	85.631	-799.93	331.55	101.94	-830.38	387.87	94.293	-739.94	379.58	90.798	-999.31	259.91	136.65	-963.34	238.64	227.62	-1051.5	305.34	194.66	-1062.8	285.11	230.86	-1076.4	286.79	170.4	-1005	98.715	116.19	-966	80.66	232.64	-932.05	36.103	174.03	-728.6	1556.3	326.84	-806	1244.9	346.4
146	0.60417	-499.91	1245.1	285.32	-604.37	1493.1	476.77	-664.54	1511.3	149.46	-635.05	1822.9	308.9	-530.23	1002.3	445.23	-553.32	984.34	180.92	-776.78	1030.6	372.89	-788.28	1022.5	271.12	-593.63	955.78	535.53	-666.31	927.32	112.49	-615.26	1096.6	517.55	-667.22	1064.8	115.1	-793.62	989.41	323.97	-501.09	659.32	505.94	-411.49	618.06	472.68	-467.96	578.6	481.3	-441.5	700.49	498.31	-423.86	527.79	470.75	-430.64	532.66	329.38	-475.7	368.35	493.89	-423.31	284.37	443.78	-483.75	298.58	482.41	-417.88	355.6	462.64	-504.51	101.49	441.94	-473.93	105.3	348.11	-574.3	71.836	382.38	-558.54	41.622	354.27	-565.72	41.646	418.49	-376.86	35.88	482.92	-340.07	39.385	358.79	-279.45	57.815	416.45	-690.27	651.93	122.61	-609.98	584.69	85.742	-673.84	561.86	126.54	-630.9	677.65	87.48	-634.28	487.38	89.025	-567.58	464.17	223.93	-756.78	439.33	85.676	-788.24	333.74	102.13	-817.96	390.24	94.586	-727.64	381.22	90.857	-987.79	264.12	137.63	-951.54	241.9	228.35	-1038.8	310.26	196.18	-1050.3	290.06	232.37	-1064.3	292.25	171.99	-996.36	102.67	116.45	-956.49	83.173	232.37	-924.26	37.366	173.31	-722.79	1556.9	327.93	-800.02	1245.4	347.12
147	0.60833	-494.18	1245.8	285.47	-598.19	1493.5	477.4	-659.08	1512.2	150.27	-629.28	1823.6	310.21	-524.08	1002.9	445.25	-547.55	985.06	180.95	-770.76	1031.1	373.3	-782.47	1022.7	271.56	-587.2	956.43	535.61	-660.42	927.76	112.73	-609.28	1097	517.88	-661.91	1065.3	115.5	-787.64	989.72	324.48	-496.24	659.34	505.76	-406.9	617.58	472.44	-463.58	578.44	481.14	-436.43	700.21	498.06	-420	527.21	470.56	-426.88	532.17	329.23	-473.33	368.28	493.6	-421.58	283.82	443.63	-481.95	298.56	482.2	-415.56	355.02	462.49	-504.35	101.56	441.77	-473.82	105.19	347.91	-574.3	71.836	382.34	-558.55	41.602	354.26	-565.72	41.669	418.48	-376.87	35.988	482.88	-340.09	39.317	358.7	-279.47	57.729	416.36	-680.06	651.82	122.74	-599.27	585.61	85.327	-662.4	561.99	126.71	-621.27	678.25	87.186	-622	488.47	88.609	-554.51	465.71	223.73	-744.06	441.28	85.812	-776.51	335.96	102.39	-805.55	392.58	94.962	-715.33	382.96	90.989	-976.11	268.1	138.73	-939.53	245	229.2	-1026.1	314.73	197.82	-1037.7	294.51	233.99	-1052.1	297.19	173.7	-987.09	106.48	116.77	-946.29	85.633	232.14	-915.62	38.826	172.63	-716.99	1557.5	328.97	-794.07	1246	347.81
148	0.6125	-488.47	1246.4	285.56	-592.03	1493.9	478	-653.63	1513.1	151.04	-623.48	1824.3	311.49	-517.96	1003.5	445.23	-541.81	985.88	180.92	-764.77	1031.6	373.71	-776.67	1023.1	272	-580.83	957.09	535.67	-654.56	928.33	112.92	-603.29	1097.4	518.2	-656.68	1065.9	115.86	-781.68	990.14	324.98	-491.55	659.38	505.57	-402.48	617.1	472.19	-459.38	578.29	480.98	-431.5	699.92	497.8	-416.34	526.65	470.37	-423.3	531.69	329.09	-471.12	368.2	493.3	-419.96	283.29	443.5	-480.28	298.53	481.99	-413.4	354.45	462.36	-504.22	101.62	441.62	-473.71	105.1	347.72	-574.3	71.826	382.31	-558.57	41.58	354.25	-565.72	41.684	418.48	-376.9	36.103	482.85	-340.11	39.289	358.63	-279.5	57.7	416.29	-669.86	651.88	122.9	-588.59	586.7	84.96	-650.98	562.31	126.92	-611.68	679.01	86.912	-609.81	489.75	88.265	-541.54	467.47	223.6	-731.43	443.29	86.036	-764.76	338.22	102.71	-793.15	394.9	95.42	-703.02	384.8	91.189	-964.28	271.81	139.95	-927.32	247.92	230.14	-1013.4	318.73	199.58	-1025.1	298.44	235.71	-1039.8	301.58	175.51	-977.14	110.1	117.15	-935.42	88.017	231.98	-906.11	40.449	172.01	-711.21	1558.2	329.96	-788.18	1246.7	348.46
149	0.61667	-482.78	1247.2	285.59	-585.91	1494.4	478.55	-648.21	1514	151.75	-617.67	1825.1	312.74	-511.87	1004.2	445.18	-536.11	986.81	180.85	-758.79	1032.2	374.13	-770.88	1023.6	272.44	-574.53	957.74	535.69	-648.72	929.05	113.07	-597.31	1097.9	518.5	-651.53	1066.5	116.17	-775.76	990.66	325.47	-487.02	659.45	505.36	-398.23	616.63	471.93	-455.36	578.16	480.81	-426.73	699.65	497.52	-412.86	526.09	470.19	-419.88	531.21	328.95	-469.05	368.13	493.02	-418.46	282.78	443.38	-478.72	298.51	481.77	-411.37	353.91	462.24	-504.11	101.69	441.48	-473.6	105.03	347.55	-574.31	71.811	382.28	-558.58	41.556	354.24	-565.72	41.692	418.47	-376.92	36.218	482.81	-340.14	39.293	358.56	-279.54	57.715	416.22	-659.68	652.11	123.07	-577.95	587.96	84.635	-639.59	562.82	127.17	-602.16	679.92	86.656	-597.71	491.21	87.987	-528.69	469.46	223.53	-718.9	445.34	86.348	-753	340.49	103.09	-780.79	397.19	95.96	-690.73	386.72	91.448	-952.3	275.24	141.27	-914.93	250.66	231.18	-1000.7	322.26	201.44	-1012.4	301.85	237.51	-1027.5	305.43	177.4	-966.52	113.49	117.6	-923.89	90.304	231.9	-895.76	42.196	171.48	-705.44	1558.9	330.9	-782.32	1247.4	349.1
150	0.62083	-477.12	1248	285.58	-579.83	1495	479.06	-642.8	1515.1	152.42	-611.85	1825.9	313.96	-505.79	1004.9	445.11	-530.43	987.84	180.73	-752.83	1032.9	374.54	-765.1	1024.1	272.87	-568.3	958.39	535.7	-642.89	929.9	113.18	-591.32	1098.4	518.78	-646.44	1067.2	116.44	-769.85	991.3	325.94	-482.63	659.53	505.15	-394.13	616.15	471.68	-451.5	578.05	480.65	-422.1	699.39	497.23	-409.57	525.55	470.02	-416.61	530.74	328.82	-467.11	368.05	492.75	-417.06	282.3	443.28	-477.27	298.49	481.57	-409.47	353.39	462.13	-504.01	101.75	441.35	-473.5	104.96	347.4	-574.31	71.792	382.25	-558.6	41.535	354.22	-565.73	41.697	418.47	-376.96	36.331	482.78	-340.17	39.32	358.51	-279.59	57.764	416.17	-649.53	652.5	123.24	-567.36	589.38	84.346	-628.23	563.52	127.45	-592.7	680.98	86.412	-585.72	492.83	87.772	-515.94	471.65	223.52	-706.47	447.43	86.743	-741.22	342.76	103.52	-768.46	399.43	96.578	-678.47	388.73	91.76	-940.18	278.36	142.68	-902.35	253.19	232.31	-988.02	325.3	203.36	-999.6	304.74	239.38	-1015.1	308.72	179.35	-955.27	116.61	118.12	-911.74	92.469	231.91	-884.59	44.023	171.05	-699.69	1559.7	331.79	-776.51	1248.2	349.71
